***************************************************************

[IMG]http://www.hotimg.org/images/67363952943939111394.png[/IMG]

***************************************************************

[img]http://www.imagezon3.com/images/2p3QE.jpg[/img]

***************************************************************

FILM TITLE: The Skin I Live In (2011)  La piel que habito (original title)

***************************************************************

Genre:  Drama | Thriller  

Rated R for disturbing violent content including sexual assault, 
strong sexuality, graphic nudity, drug use and language

Release:  16 September 2011 (Poland)

Director: Pedro Almodóvar

Writer: Pedro Almodóvar (screenplay), Agustín Almodóvar (collaboration)

Stars:  Antonio Banderas, Elena Anaya and Jan Cornet

Country: Spain

Language:  Spanish

Plot:
A brilliant plastic surgeon, haunted by past tragedies, 
creates a type of synthetic skin that withstands any kind of 
damage. His guinea pig: a mysterious and volatile woman who 
holds the key to his obsession.

IMDB Rating: 7.7/10 from 23,653 users   Metascore: 70/100 
 
http://www.imdb.com/title/tt1189073/

****************************************************************

[url=http://www.imagezon3.com/images/vNRQk.png][img]http://www.imagezon3.com/images/thumbs/vNRQk.png[/img][/url]
[url=http://www.imagezon3.com/images/v2gy8.png][img]http://www.imagezon3.com/images/thumbs/v2gy8.png[/img][/url]
[url=http://www.imagezon3.com/images/SwZpg.png][img]http://www.imagezon3.com/images/thumbs/SwZpg.png[/img][/url]
[url=http://www.imagezon3.com/images/Xv5p.png][img]http://www.imagezon3.com/images/thumbs/Xv5p.png[/img][/url]
[url=http://www.imagezon3.com/images/3aT8J.png][img]http://www.imagezon3.com/images/thumbs/3aT8J.png[/img][/url]

****************************************************************

General
Complete name                    : The Skin I Live In 2011 720p BDRip XviD ac3 eng-hardsub (avi) [GREYSHADOW].avi
Format                           : AVI
Format/Info                      : Audio Video Interleave
Format profile                   : OpenDML
File size                        : 3.82 GiB
Duration                         : 2h 0mn
Overall bit rate                 : 4545 Kbps
Writing library                  : VirtualDub build 32842/release

Video
ID                               : 0
Format                           : MPEG-4 Visual
Format profile                   : Simple@L5
Format settings, BVOP            : No
Format settings, QPel            : No
Format settings, GMC             : No warppoints
Format settings, Matrix          : Default (H.263)
Codec ID                         : XVID
Codec ID/Hint                    : XviD
Duration                         : 2h 0mn
Bit rate                         : 3896 Kbps
Width                            : 1280 pixels
Height                           : 688 pixels
Display aspect ratio             : 1.860
Frame rate                       : 23.976 fps
Color space                      : YUV
Chroma subsampling               : 4:2:0
Bit depth                        : 8 bits
Scan type                        : Progressive
Compression mode                 : Lossy
Bits/(Pixel*Frame)               : 0.185
Stream size                      : 3.27 GiB (86%)
Writing library                  : XviD 64

Audio
ID                               : 1
Format                           : AC-3
Format/Info                      : Audio Coding 3
Mode extension                   : CM (complete main)
Codec ID                         : 2000
Duration                         : 2h 0mn
Bit rate mode                    : Constant
Bit rate                         : 640 Kbps
Channel(s)                       : 6 channels
Channel positions                : Front: L C R, Side: L R, LFE
Sampling rate                    : 48.0 KHz
Bit depth                        : 16 bits
Compression mode                 : Lossy
Stream size                      : 551 MiB (14%)
Alignment                        : Aligned on interleaves
Interleave, duration             : 42 ms (1.00 video frame)
Interleave, preload duration     : 512 ms

****************************************************************

Video Source: The Skin I Live In 2011 BluRay 1080p AVC DTS-HD MA5.1-CHDBits (43.08GB)

Thanks: chdbits.org

****************************************************************

I provide a small sample, so please download this to check your 
compatibility first if you are unsure.

****************************************************************

I am providing tutorials here :- 
http://tutorials4all.freeforums.org/index.php?sid=fb109f91dedb2901c4d0b39625c431f7
This is for opening my mkv encodes, remuxing to Bluray for PS3 or mkv or mp4 with 
additional or selected audio or subtitles which I will now start supplying, so if your
fed up finding the right encode to match your player - DO IT YOURSELF - it's simples.

I allow transfer of my encodes to any site, just give me credit (Thanks: GREYSHADOW)

****************************************************************